<mxfile host="app.diagrams.net" modified="2023-08-04T06:01:05.045Z" agent="Mozilla/5.0 (Macintosh; Intel Mac OS X 10_15_7) AppleWebKit/537.36 (KHTML, like Gecko) Chrome/115.0.0.0 Safari/537.36" etag="T9sjbpcFNlclfeDXE0Y6" version="21.6.6" type="device">
  <diagram name="第 1 页" id="blD9YHmnlmHxHA63Bs1x">
    <mxGraphModel dx="954" dy="610" grid="1" gridSize="10" guides="1" tooltips="1" connect="1" arrows="1" fold="1" page="1" pageScale="1" pageWidth="827" pageHeight="1169" math="0" shadow="0">
      <root>
        <mxCell id="0" />
        <mxCell id="1" parent="0" />
        <mxCell id="-VHPMTe-ZJGyelE538r9-1" value="" style="rounded=0;whiteSpace=wrap;html=1;" vertex="1" parent="1">
          <mxGeometry x="80" y="200" width="640" height="60" as="geometry" />
        </mxCell>
        <mxCell id="-VHPMTe-ZJGyelE538r9-2" value="" style="rounded=0;whiteSpace=wrap;html=1;" vertex="1" parent="1">
          <mxGeometry x="80" y="280" width="640" height="60" as="geometry" />
        </mxCell>
        <mxCell id="-VHPMTe-ZJGyelE538r9-3" value="" style="endArrow=none;html=1;rounded=0;entryX=0.061;entryY=0.017;entryDx=0;entryDy=0;entryPerimeter=0;" edge="1" parent="1" target="-VHPMTe-ZJGyelE538r9-1">
          <mxGeometry width="50" height="50" relative="1" as="geometry">
            <mxPoint x="120" y="260" as="sourcePoint" />
            <mxPoint x="190" y="80" as="targetPoint" />
          </mxGeometry>
        </mxCell>
        <mxCell id="-VHPMTe-ZJGyelE538r9-4" value="8 bit&lt;br&gt;chunk&lt;br&gt;state" style="rounded=0;whiteSpace=wrap;html=1;" vertex="1" parent="1">
          <mxGeometry x="80" y="200" width="80" height="60" as="geometry" />
        </mxCell>
        <mxCell id="-VHPMTe-ZJGyelE538r9-7" value="" style="group" vertex="1" connectable="0" parent="1">
          <mxGeometry x="80" y="130" width="640" height="32" as="geometry" />
        </mxCell>
        <mxCell id="-VHPMTe-ZJGyelE538r9-5" value="" style="endArrow=classic;startArrow=classic;html=1;rounded=0;" edge="1" parent="-VHPMTe-ZJGyelE538r9-7">
          <mxGeometry width="50" height="50" relative="1" as="geometry">
            <mxPoint y="32" as="sourcePoint" />
            <mxPoint x="640" y="32" as="targetPoint" />
          </mxGeometry>
        </mxCell>
        <mxCell id="-VHPMTe-ZJGyelE538r9-6" value="&lt;font style=&quot;font-size: 14px;&quot;&gt;8 字节&lt;/font&gt;" style="text;html=1;align=center;verticalAlign=middle;resizable=0;points=[];autosize=1;strokeColor=none;fillColor=none;" vertex="1" parent="-VHPMTe-ZJGyelE538r9-7">
          <mxGeometry x="290" width="60" height="30" as="geometry" />
        </mxCell>
        <mxCell id="-VHPMTe-ZJGyelE538r9-8" value="24 bit&lt;br&gt;alloc_tid" style="rounded=0;whiteSpace=wrap;html=1;" vertex="1" parent="1">
          <mxGeometry x="160" y="200" width="170" height="60" as="geometry" />
        </mxCell>
        <mxCell id="-VHPMTe-ZJGyelE538r9-9" value="24 bit&lt;br&gt;free_tid" style="rounded=0;whiteSpace=wrap;html=1;" vertex="1" parent="1">
          <mxGeometry x="330" y="200" width="150" height="60" as="geometry" />
        </mxCell>
        <mxCell id="-VHPMTe-ZJGyelE538r9-10" value="1 bit&lt;br&gt;from_&lt;br&gt;memalign" style="rounded=0;whiteSpace=wrap;html=1;" vertex="1" parent="1">
          <mxGeometry x="480" y="200" width="60" height="60" as="geometry" />
        </mxCell>
        <mxCell id="-VHPMTe-ZJGyelE538r9-11" value="2 bit&lt;br&gt;lsan_tag" style="rounded=0;whiteSpace=wrap;html=1;" vertex="1" parent="1">
          <mxGeometry x="670" y="200" width="50" height="60" as="geometry" />
        </mxCell>
        <mxCell id="-VHPMTe-ZJGyelE538r9-12" value="3 bit&lt;br&gt;rz_log" style="rounded=0;whiteSpace=wrap;html=1;" vertex="1" parent="1">
          <mxGeometry x="600" y="200" width="70" height="60" as="geometry" />
        </mxCell>
        <mxCell id="-VHPMTe-ZJGyelE538r9-15" value="2 bit&lt;br&gt;alloc_type" style="rounded=0;whiteSpace=wrap;html=1;" vertex="1" parent="1">
          <mxGeometry x="540" y="200" width="60" height="60" as="geometry" />
        </mxCell>
        <mxCell id="-VHPMTe-ZJGyelE538r9-17" value="32 bit&lt;br&gt;user_requested_size" style="rounded=0;whiteSpace=wrap;html=1;" vertex="1" parent="1">
          <mxGeometry x="80" y="280" width="320" height="60" as="geometry" />
        </mxCell>
        <mxCell id="-VHPMTe-ZJGyelE538r9-18" value="32 bit&lt;br&gt;alloc_context_id" style="rounded=0;whiteSpace=wrap;html=1;" vertex="1" parent="1">
          <mxGeometry x="400" y="280" width="320" height="60" as="geometry" />
        </mxCell>
      </root>
    </mxGraphModel>
  </diagram>
</mxfile>
